<mxfile host="app.diagrams.net" modified="2021-12-18T19:43:31.129Z" agent="5.0 (Windows NT 6.1; Win64; x64) AppleWebKit/537.36 (KHTML, like Gecko) Chrome/96.0.4664.110 Safari/537.36" etag="uejkIj3d2AuvZvbjqmt_" version="14.8.0" type="github">
  <diagram id="5bCVK2h6y52akC2RZia3" name="Page-1">
    <mxGraphModel dx="1102" dy="557" grid="1" gridSize="10" guides="1" tooltips="1" connect="1" arrows="1" fold="1" page="1" pageScale="1" pageWidth="850" pageHeight="1100" math="0" shadow="0">
      <root>
        <mxCell id="0" />
        <mxCell id="1" parent="0" />
        <mxCell id="aUc-BjGLuyeq8rjbuqXE-1" value="&lt;b&gt;&lt;font style=&quot;font-size: 26px&quot;&gt;GBSD Data Flow Diagram Level-0&amp;nbsp;&lt;/font&gt;&lt;/b&gt;" style="text;html=1;strokeColor=none;fillColor=none;align=center;verticalAlign=middle;whiteSpace=wrap;rounded=0;" parent="1" vertex="1">
          <mxGeometry x="205" width="440" height="50" as="geometry" />
        </mxCell>
        <mxCell id="aUc-BjGLuyeq8rjbuqXE-7" style="edgeStyle=orthogonalEdgeStyle;rounded=0;orthogonalLoop=1;jettySize=auto;html=1;exitX=1;exitY=1;exitDx=0;exitDy=0;entryX=0.75;entryY=0;entryDx=0;entryDy=0;" parent="1" source="aUc-BjGLuyeq8rjbuqXE-2" target="aUc-BjGLuyeq8rjbuqXE-5" edge="1">
          <mxGeometry relative="1" as="geometry" />
        </mxCell>
        <mxCell id="aUc-BjGLuyeq8rjbuqXE-15" value="Forward video against each Question asked" style="edgeLabel;html=1;align=center;verticalAlign=middle;resizable=0;points=[];" parent="aUc-BjGLuyeq8rjbuqXE-7" vertex="1" connectable="0">
          <mxGeometry x="-0.3989" y="-3" relative="1" as="geometry">
            <mxPoint x="69" as="offset" />
          </mxGeometry>
        </mxCell>
        <mxCell id="aUc-BjGLuyeq8rjbuqXE-9" style="edgeStyle=orthogonalEdgeStyle;rounded=0;orthogonalLoop=1;jettySize=auto;html=1;exitX=0;exitY=1;exitDx=0;exitDy=0;entryX=0.5;entryY=1;entryDx=0;entryDy=0;" parent="1" source="aUc-BjGLuyeq8rjbuqXE-2" target="aUc-BjGLuyeq8rjbuqXE-3" edge="1">
          <mxGeometry relative="1" as="geometry">
            <Array as="points">
              <mxPoint x="138" y="336" />
            </Array>
          </mxGeometry>
        </mxCell>
        <mxCell id="aUc-BjGLuyeq8rjbuqXE-14" value="Show results of stress level" style="edgeLabel;html=1;align=center;verticalAlign=middle;resizable=0;points=[];" parent="aUc-BjGLuyeq8rjbuqXE-9" vertex="1" connectable="0">
          <mxGeometry x="0.2414" relative="1" as="geometry">
            <mxPoint x="42" y="14" as="offset" />
          </mxGeometry>
        </mxCell>
        <mxCell id="aUc-BjGLuyeq8rjbuqXE-11" style="edgeStyle=orthogonalEdgeStyle;rounded=0;orthogonalLoop=1;jettySize=auto;html=1;exitX=1;exitY=0.5;exitDx=0;exitDy=0;entryX=0.5;entryY=1;entryDx=0;entryDy=0;" parent="1" source="aUc-BjGLuyeq8rjbuqXE-2" target="aUc-BjGLuyeq8rjbuqXE-4" edge="1">
          <mxGeometry relative="1" as="geometry">
            <Array as="points">
              <mxPoint x="560" y="268" />
              <mxPoint x="560" y="330" />
              <mxPoint x="718" y="330" />
            </Array>
          </mxGeometry>
        </mxCell>
        <mxCell id="-jKXKBMY69VXoRkYRhgL-3" value="Return CSV file &amp;amp; images of requested Client" style="edgeLabel;html=1;align=center;verticalAlign=middle;resizable=0;points=[];" vertex="1" connectable="0" parent="aUc-BjGLuyeq8rjbuqXE-11">
          <mxGeometry x="0.025" y="-2" relative="1" as="geometry">
            <mxPoint x="37" y="8" as="offset" />
          </mxGeometry>
        </mxCell>
        <mxCell id="aUc-BjGLuyeq8rjbuqXE-2" value="&lt;b&gt;&lt;font style=&quot;font-size: 16px&quot;&gt;Gesture Based Stress Detector Web Portal&lt;/font&gt;&lt;/b&gt;" style="ellipse;whiteSpace=wrap;html=1;aspect=fixed;fillColor=#ffcccc;strokeColor=#36393d;" parent="1" vertex="1">
          <mxGeometry x="328" y="170" width="195" height="195" as="geometry" />
        </mxCell>
        <mxCell id="aUc-BjGLuyeq8rjbuqXE-8" style="edgeStyle=orthogonalEdgeStyle;rounded=0;orthogonalLoop=1;jettySize=auto;html=1;exitX=0.5;exitY=0;exitDx=0;exitDy=0;entryX=0;entryY=0;entryDx=0;entryDy=0;" parent="1" source="aUc-BjGLuyeq8rjbuqXE-3" target="aUc-BjGLuyeq8rjbuqXE-2" edge="1">
          <mxGeometry relative="1" as="geometry" />
        </mxCell>
        <mxCell id="aUc-BjGLuyeq8rjbuqXE-12" value="Request Analysis based on gesture" style="edgeLabel;html=1;align=center;verticalAlign=middle;resizable=0;points=[];" parent="aUc-BjGLuyeq8rjbuqXE-8" vertex="1" connectable="0">
          <mxGeometry x="-0.1022" relative="1" as="geometry">
            <mxPoint x="28" y="-9" as="offset" />
          </mxGeometry>
        </mxCell>
        <mxCell id="aUc-BjGLuyeq8rjbuqXE-3" value="Analyst" style="html=1;dashed=0;whitespace=wrap;fillColor=#cdeb8b;strokeColor=#36393d;" parent="1" vertex="1">
          <mxGeometry x="90" y="260" width="95" height="40" as="geometry" />
        </mxCell>
        <mxCell id="aUc-BjGLuyeq8rjbuqXE-10" style="edgeStyle=orthogonalEdgeStyle;rounded=0;orthogonalLoop=1;jettySize=auto;html=1;exitX=0.5;exitY=0;exitDx=0;exitDy=0;entryX=1;entryY=0;entryDx=0;entryDy=0;" parent="1" source="aUc-BjGLuyeq8rjbuqXE-4" target="aUc-BjGLuyeq8rjbuqXE-2" edge="1">
          <mxGeometry relative="1" as="geometry">
            <Array as="points">
              <mxPoint x="718" y="199" />
            </Array>
          </mxGeometry>
        </mxCell>
        <mxCell id="-jKXKBMY69VXoRkYRhgL-2" value="Monitor system &amp;amp; gather new Dataset" style="edgeLabel;html=1;align=center;verticalAlign=middle;resizable=0;points=[];" vertex="1" connectable="0" parent="aUc-BjGLuyeq8rjbuqXE-10">
          <mxGeometry x="0.2605" y="-2" relative="1" as="geometry">
            <mxPoint x="35" y="-7" as="offset" />
          </mxGeometry>
        </mxCell>
        <mxCell id="aUc-BjGLuyeq8rjbuqXE-4" value="Admin" style="html=1;dashed=0;whitespace=wrap;fillColor=#cdeb8b;strokeColor=#36393d;" parent="1" vertex="1">
          <mxGeometry x="670" y="247.5" width="95" height="40" as="geometry" />
        </mxCell>
        <mxCell id="aUc-BjGLuyeq8rjbuqXE-6" style="edgeStyle=orthogonalEdgeStyle;rounded=0;orthogonalLoop=1;jettySize=auto;html=1;exitX=0.25;exitY=0;exitDx=0;exitDy=0;entryX=0.318;entryY=0.974;entryDx=0;entryDy=0;entryPerimeter=0;" parent="1" source="aUc-BjGLuyeq8rjbuqXE-5" target="aUc-BjGLuyeq8rjbuqXE-2" edge="1">
          <mxGeometry relative="1" as="geometry" />
        </mxCell>
        <mxCell id="-jKXKBMY69VXoRkYRhgL-1" value="Return predicted results&lt;br&gt;&amp;nbsp;based on image classification" style="edgeLabel;html=1;align=center;verticalAlign=middle;resizable=0;points=[];" vertex="1" connectable="0" parent="aUc-BjGLuyeq8rjbuqXE-6">
          <mxGeometry x="0.4061" y="3" relative="1" as="geometry">
            <mxPoint x="-37" y="12" as="offset" />
          </mxGeometry>
        </mxCell>
        <mxCell id="aUc-BjGLuyeq8rjbuqXE-5" value="Trainer Algorithm" style="html=1;dashed=0;whitespace=wrap;fillColor=#cdeb8b;strokeColor=#36393d;" parent="1" vertex="1">
          <mxGeometry x="390" y="530" width="102" height="40" as="geometry" />
        </mxCell>
      </root>
    </mxGraphModel>
  </diagram>
</mxfile>
